<svg width="20" height="20" viewBox="0 0 226 226"><path d="M183 112.9c-7.3-5.5-17.7-7.7-17.7-7.7S174 100 177.7 95c3.6-5.1 5.4-13 5.7-17.1.3-4.1 1-21.3-12.4-31.2C160.6 39 148.7 36 132.8 35V.3h-21.4v34.3H95V.3H73.7v34.3h-42v22.2H44c3.4 0 9.4.4 11.9 3.2 2.6 2.9 3 4.4 3 10v88.4c0 2.1-.4 4.7-2.2 6.4-1.8 1.7-3.6 2.1-7.9 2.1H36l-4.4 25.7h42.1v34.2h21.4v-34.2h16.3v34.2h21.4v-34.7c5.5-.3 10.7-.8 13.7-1.2 6-.8 19.9-2.4 32.8-11.4 12.9-9 15.8-23 16-37.2.4-14.2-5-24-12.3-29.4zM95 58.8s6.8-.6 13.5-.5a68 68 0 0 1 21.4 3c8.8 2.7 14 9.3 14.2 17 .2 7.9-3.2 13-9.2 16.4-6 3.3-14.3 5-22.1 5.4-7.8.3-17.8 0-17.8 0V58.8zM143 161a68 68 0 0 1-24.2 5.8c-9.5.7-23.7.4-23.7.4v-45.8s13.6-.7 24.2 0 19.5 3.4 23.5 5.4c4 2 11 6.4 11 16.9 0 10.4-6 14.6-10.8 17.3z"></path></svg>