<svg width="20" height="20" viewBox="0 0 226 226"><path d="M197.4 177.2l-27.6-106a5.5 5.5 0 0 0-1-2L118 2.3a5.5 5.5 0 0 0-8.8 0l-51.5 67a5.5 5.5 0 0 0-1 2l-27 106a5.5 5.5 0 0 0 2.7 6.2l78.5 43.4a5.6 5.6 0 0 0 5.4 0l78.5-43.4a5.5 5.5 0 0 0 2.7-6.2zm-19.7-31.5l-21-33.3 7-20.6 14 53.9zM119 22l39.2 51.6-9.1 26.8L119 53V22zm-5.5 42.9l31 49-20.2 59.2h-21.8l-20.3-58.8 31.3-49.4zM108 21.8V53l-30.4 48-9.4-27.4L108 21.8zm-45.2 70l7.2 21-21 33.4 13.8-54.3zm11.8 34.5L90.8 173H45l29.6-46.8zM56.4 184h38.2l9 26-47.2-26zm57 20.8l-7.1-20.8h14.3l-7.1 20.8zm10 5.3l8.9-26.1h38.3l-47.3 26.1zm12.6-37.1l16-47.2 30 47.2h-46z"/></svg>