<svg width="20" height="20" viewBox="0 0 226 226"><circle cx="131.3" cy="135.8" r="6"/><circle cx="144.7" cy="123.3" r="6.5"/><circle cx="156.2" cy="105.6" r="7.4"/><circle cx="163.6" cy="81.5" r="10.7"/><circle cx="167.7" cy="52.3" r="11.5"/><circle cx="164.5" cy="18.4" r="14.3"/><ellipse transform="rotate(-76.6 145.8 148.3)" cx="145.8" cy="148.3" rx="5.2" ry="5.2"/><ellipse transform="rotate(-76.6 159.5 140.5)" cx="159.5" cy="140.5" rx="5.6" ry="5.6"/><ellipse transform="rotate(-76.6 172.5 128)" cx="172.6" cy="128" rx="6.4" ry="6.4"/><ellipse transform="rotate(-76.6 183.5 109.5)" cx="183.5" cy="109.5" rx="9.1" ry="9.1"/><ellipse transform="rotate(-76.6 192.8 86)" cx="192.8" cy="85.9" rx="9.9" ry="9.9"/><ellipse transform="rotate(-76.6 196.8 57)" cx="196.8" cy="57" rx="12.2" ry="12.2"/><ellipse transform="rotate(-64.5 158.1 161.1)" cx="158.1" cy="161.1" rx="4.4" ry="4.4"/><ellipse transform="rotate(-64.5 170.8 157.2)" cx="170.8" cy="157.2" rx="4.7" ry="4.7"/><ellipse transform="rotate(-64.5 183.8 149.2)" cx="183.8" cy="149.2" rx="5.4" ry="5.4"/><ellipse transform="rotate(-64.5 196.2 135.8)" cx="196.2" cy="135.8" rx="7.7" ry="7.7"/><ellipse transform="rotate(-64.5 208 118)" cx="208" cy="118" rx="8.4" ry="8.4"/><ellipse transform="rotate(-64.5 216.5 94.8)" cx="216.5" cy="94.8" rx="10.3" ry="10.3"/><ellipse transform="rotate(-30 132.6 92.3)" cx="132.6" cy="92.3" rx="6" ry="6"/><ellipse transform="rotate(-30 115 87)" cx="115" cy="87" rx="6.5" ry="6.5"/><ellipse transform="rotate(-30 94 85.9)" cx="93.9" cy="85.9" rx="7.4" ry="7.4"/><ellipse transform="rotate(-30 69.4 91.5)" cx="69.4" cy="91.5" rx="10.7" ry="10.7"/><ellipse transform="rotate(-30 42 102.5)" cx="42" cy="102.5" rx="11.5" ry="11.5"/><ellipse transform="rotate(-30 14.3 122.3)" cx="14.3" cy="122.3" rx="14.3" ry="14.3"/><ellipse transform="rotate(-16.6 136.2 73.5)" cx="136.2" cy="73.5" rx="5.2" ry="5.2"/><ellipse transform="rotate(-16.6 122.6 65.6)" cx="122.6" cy="65.6" rx="5.6" ry="5.6"/><ellipse transform="rotate(-16.6 105.2 60.5)" cx="105.2" cy="60.5" rx="6.4" ry="6.4"/><ellipse transform="rotate(-16.6 83.7 60.3)" cx="83.7" cy="60.3" rx="9.1" ry="9.1"/><ellipse transform="rotate(-16.6 58.7 64)" cx="58.7" cy="64" rx="9.9" ry="9.9"/><ellipse transform="rotate(-16.6 31.6 75)" cx="31.6" cy="75" rx="12.2" ry="12.2"/><ellipse transform="rotate(-4.4 141.2 56.4)" cx="141.1" cy="56.4" rx="4.4" ry="4.4"/><ellipse transform="rotate(-4.4 131.4 47.4)" cx="131.3" cy="47.4" rx="4.7" ry="4.7"/><ellipse transform="rotate(-4.5 118 40.2)" cx="117.9" cy="40.2" rx="5.4" ry="5.4"/><ellipse transform="rotate(-4.5 100.2 36.2)" cx="100.1" cy="36.1" rx="7.7" ry="7.7"/><ellipse transform="rotate(-4.5 78.8 34.8)" cx="78.8" cy="34.8" rx="8.4" ry="8.4"/><ellipse transform="rotate(-4.5 54.5 39.1)" cx="54.5" cy="39.1" rx="10.3" ry="10.3"/><ellipse transform="rotate(-60 94.5 114.3)" cx="94.5" cy="114.3" rx="6" ry="6"/><ellipse transform="rotate(-60 98.6 132.2)" cx="98.6" cy="132.2" rx="6.5" ry="6.5"/><ellipse transform="rotate(-60 108.3 151)" cx="108.3" cy="151" rx="7.4" ry="7.4"/><ellipse transform="rotate(-60 125.4 169.5)" cx="125.4" cy="169.5" rx="10.7" ry="10.7"/><ellipse transform="rotate(-60 148.6 187.7)" cx="148.6" cy="187.7" rx="11.5" ry="11.5"/><ellipse transform="rotate(-60 179.6 201.8)" cx="179.6" cy="201.8" rx="14.3" ry="14.3"/><ellipse transform="rotate(-46.6 76.5 120.6)" cx="76.5" cy="120.6" rx="5.2" ry="5.2"/><ellipse transform="rotate(-46.6 76.3 136.4)" cx="76.3" cy="136.4" rx="5.6" ry="5.6"/><ellipse transform="rotate(-46.6 80.6 154)" cx="80.6" cy="154" rx="6.4" ry="6.4"/><ellipse transform="rotate(-46.6 91.2 172.8)" cx="91.2" cy="172.7" rx="9.1" ry="9.1"/><ellipse transform="rotate(-46.6 107 192.5)" cx="107" cy="192.5" rx="9.9" ry="9.9"/><ellipse transform="rotate(-46.6 130 210.5)" cx="130" cy="210.5" rx="12.2" ry="12.2"/><ellipse transform="rotate(-34.5 59.2 124.9)" cx="59.2" cy="124.9" rx="4.4" ry="4.4"/><ellipse transform="rotate(-34.5 56.3 137.9)" cx="56.3" cy="137.9" rx="4.7" ry="4.7"/><ellipse transform="rotate(-34.5 56.7 153.1)" cx="56.7" cy="153.2" rx="5.4" ry="5.4"/><ellipse transform="rotate(-34.5 62 170.5)" cx="62.1" cy="170.5" rx="7.7" ry="7.7"/><ellipse transform="rotate(-34.5 71.6 189.7)" cx="71.6" cy="189.7" rx="8.4" ry="8.4"/><ellipse transform="rotate(-34.5 87.4 208.6)" cx="87.4" cy="208.6" rx="10.3" ry="10.3"/></svg>